PathFileType	4	(X/Y/Z)	/Users/niels/Desktop/University/Third Semester/Perception and Action/Exam/Gymnastics Motion Tracking/Code for Gym Tracking/Analyzed Data/Webcam_Backflip/id2_5_pure_Sports2D/id2_5_pure_Sports2D_px_person00.trc
DataRate	CameraRate	NumFrames	NumMarkers	Units	OrigDataRate	OrigDataStartFrame	OrigNumFrames
29.874476987447697	29.874476987447697	10	22	m	29.874476987447697	119	239
Frame#	Time	Hip			RHip			RKnee			RAnkle			RBigToe			RSmallToe			RHeel			LHip			LKnee			LAnkle			LBigToe			LSmallToe			LHeel			Neck			Head			Nose			RShoulder			RElbow			RWrist			LShoulder			LElbow			LWrist		
		X1	Y1	Z1	X2	Y2	Z2	X3	Y3	Z3	X4	Y4	Z4	X5	Y5	Z5	X6	Y6	Z6	X7	Y7	Z7	X8	Y8	Z8	X9	Y9	Z9	X10	Y10	Z10	X11	Y11	Z11	X12	Y12	Z12	X13	Y13	Z13	X14	Y14	Z14	X15	Y15	Z15	X16	Y16	Z16	X17	Y17	Z17	X18	Y18	Z18	X19	Y19	Z19	X20	Y20	Z20	X21	Y21	Z21	X22	Y22	Z22
119	3.9833333333333334	0.7782318866588097	-0.5328933576825035	0.0	0.775422556134405	-0.5321496260327965	0.0	0.8007821646453459	-0.6492313993574829	0.0	0.7567854794675202	-0.7645916016206004	0.0	0.8007560103495993	-0.7834900624605663	0.0	0.7896774222878101	-0.7857539691009292	0.0	0.7442996639469278	-0.780882762575941	0.0	0.7807059528403052	-0.5309827769896437	0.0	0.7909581159000669	-0.6491440729686423	0.0	0.771828700649852	-0.7598079103605639	0.0	0.8166601854488948	-0.7763323341244132	0.0	0.8110702488980267	-0.7722828225682704	0.0	0.7621906627398279	-0.7745308239140516	0.0	0.7737739490608604	-0.386283648903411	0.0	0.7923024546416085	-0.311903467653562	0.0	0.8076320850842393	-0.3552618334699255	0.0	0.763869152589511	-0.396789669278382	0.0	0.7770707891580227	-0.41906268912305206	0.0	0.8199804818498986	-0.40953070370798683	0.0	0.772981445456105	-0.3999184520176359	0.0	0.7886685628999898	-0.4239012386123019	0.0	0.8215951958981742	-0.4151523224080229	0.0
120	4.016806722689076	0.7783329419721334	-0.5321141762776727	0.0	0.7766572109260775	-0.5314484350126844	0.0	0.8014957344457816	-0.648171528002868	0.0	0.762236681976341	-0.7650412882642336	0.0	0.8083639397438235	-0.7828015856049886	0.0	0.7963703031647549	-0.7857105894260594	0.0	0.7505882899529016	-0.7815944510492571	0.0	0.7793479174631363	-0.5302532361925041	0.0	0.7894395010178584	-0.6481145217509738	0.0	0.7707769891663946	-0.7599814178705875	0.0	0.8182677375595929	-0.7765292467864637	0.0	0.8119562666120094	-0.7727703903856958	0.0	0.7606574777119516	-0.7749612856090276	0.0	0.7744941769225044	-0.3850140242501248	0.0	0.7935677786061172	-0.30985188926769847	0.0	0.8095170430697657	-0.3532992042865535	0.0	0.764330996023217	-0.39713466346661697	0.0	0.7690943102905177	-0.4381045556022202	0.0	0.8203435689486288	-0.43932582182798674	0.0	0.7727240881360875	-0.3999258093090797	0.0	0.7817197163185196	-0.4406487064628358	0.0	0.823356169024372	-0.44422976612333887	0.0
121	4.050280112044818	0.778499373988821	-0.5338178055276378	0.0	0.7778473015663003	-0.5332352556685578	0.0	0.8005912771517318	-0.6496258253253112	0.0	0.7662092732267016	-0.7677762033447939	0.0	0.8132867793679125	-0.7845599681370322	0.0	0.8004367607203573	-0.7881358276087939	0.0	0.7553409918342296	-0.784486440189576	0.0	0.7783725012434265	-0.5321760751461789	0.0	0.7884737627040883	-0.6495358132558163	0.0	0.7703623393902901	-0.7621909540562604	0.0	0.8191669897153754	-0.7785982679017996	0.0	0.8125658028380758	-0.7752634863545367	0.0	0.7599256105689879	-0.7774455933008235	0.0	0.7752213955093004	-0.38567871738854526	0.0	0.794018207482034	-0.31020053366070416	0.0	0.8106368405758158	-0.3531404705076819	0.0	0.7646820670932776	-0.39997113035091786	0.0	0.7628359310160348	-0.4561208882477396	0.0	0.8192561026917268	-0.47021421174032985	0.0	0.7726677153111712	-0.402128557396878	0.0	0.7763478507839614	-0.45612089985313825	0.0	0.8229719086754698	-0.47361760123945956	0.0
122	4.08375350140056	0.7789893264492952	-0.5380485456171011	0.0	0.7790122037618638	-0.5376041910638917	0.0	0.7984247610062493	-0.6535428662966435	0.0	0.7684396971770462	-0.7725374321029652	0.0	0.8152112061846178	-0.7889137493533765	0.0	0.8015711057561213	-0.7930107157492868	0.0	0.7582399964817883	-0.7893841629757867	0.0	0.7781633270218314	-0.5367939780207719	0.0	0.7882289374580858	-0.6533781635550205	0.0	0.7705011727997436	-0.7662544234080064	0.0	0.8193244900387098	-0.7824839640910961	0.0	0.8128177246331817	-0.7795272989560511	0.0	0.7600497090008762	-0.7818229132013259	0.0	0.7758978885448597	-0.38824483500396756	0.0	0.7938272795824408	-0.3127738020581476	0.0	0.8110599772466777	-0.35480240358479204	0.0	0.7649600085411009	-0.40497260767972293	0.0	0.7596751979976751	-0.47221396253553205	0.0	0.8158079084884359	-0.5008234989607069	0.0	0.772996580573514	-0.4063426343908823	0.0	0.7735935693553136	-0.4696517931753614	0.0	0.8200635980516326	-0.5016456444665836	0.0
123	4.117226890756302	0.7800271620900666	-0.5443868692696051	0.0	0.7802640599370391	-0.5442107879366116	0.0	0.7955327299093197	-0.6595075944200302	0.0	0.7691185812363001	-0.7787851401049525	0.0	0.8146174744794326	-0.7953801541023544	0.0	0.8003052967093545	-0.7997611623567231	0.0	0.7594107804213636	-0.7958078550095917	0.0	0.7790548035090988	-0.5437190103037213	0.0	0.7885668716062995	-0.6592677080164088	0.0	0.7709729987672406	-0.7717669344519079	0.0	0.8188682122264329	-0.7877890243920237	0.0	0.8126932596196547	-0.7850084419234054	0.0	0.7607910974948415	-0.78769526906777	0.0	0.7765305828962369	-0.39252621181153363	0.0	0.7932516936751183	-0.31723518137443785	0.0	0.8109969130395087	-0.3581342107155722	0.0	0.765372108596447	-0.411563942050253	0.0	0.7594417373397279	-0.4860929592728115	0.0	0.8095136136683051	-0.5293555717744132	0.0	0.7738322775177462	-0.41217938892356826	0.0	0.773275390899445	-0.4813131794347339	0.0	0.8150248057803974	-0.5268540278077876	0.0
124	4.150700280112044	0.7816834785751944	-0.5521273529432668	0.0	0.7817023169801149	-0.5523415923068781	0.0	0.792507276285303	-0.6668623181423428	0.0	0.768681217545466	-0.7858767395587436	0.0	0.8124921702095427	-0.80300810216545	0.0	0.7977069287425026	-0.8074686440334912	0.0	0.7592272950077213	-0.8030800863519403	0.0	0.7811760588389209	-0.5522411576367182	0.0	0.7891691391055323	-0.6666000235858194	0.0	0.7715461159002246	-0.7782043391907941	0.0	0.8180481056229008	-0.7938566432993763	0.0	0.8122484186237507	-0.7910022760318566	0.0	0.7617760183064202	-0.7944695593493724	0.0	0.7772062818994151	-0.3980741764330797	0.0	0.7925399416798746	-0.3231792756495815	0.0	0.8107082718726288	-0.3628565235131443	0.0	0.766089753525442	-0.4190225062015023	0.0	0.760867765390466	-0.4978619045078618	0.0	0.800729476762326	-0.55402618595179	0.0	0.7752583811245436	-0.4190711115379155	0.0	0.7744768631122823	-0.49147913889544104	0.0	0.8088385845894813	-0.5481837909322248	0.0
125	4.184173669467787	0.7838295287522168	-0.5604335174177857	0.0	0.783318774477393	-0.5610347668559722	0.0	0.7898237861058397	-0.6747742382308425	0.0	0.7676249325454783	-0.7931697837480488	0.0	0.8098603836831131	-0.8107594063725364	0.0	0.7948919349412775	-0.8151876498827857	0.0	0.7582232935095807	-0.8104575070635374	0.0	0.7843092517188917	-0.5614003204798128	0.0	0.7897722718487027	-0.6745651750245791	0.0	0.7720579080074597	-0.7849919426648819	0.0	0.8171518173270006	-0.8000119047881387	0.0	0.8116219030178774	-0.7968892241895612	0.0	0.7626676438949731	-0.801496572999777	0.0	0.7780244466140339	-0.4042333548138391	0.0	0.7919077308543758	-0.3300560758492906	0.0	0.810444600186786	-0.3685145648048634	0.0	0.7670986599506692	-0.4266095931440906	0.0	0.7622545193179819	-0.5077203470178964	0.0	0.790570389211655	-0.5736269828484281	0.0	0.7772518614199774	-0.4263249406205168	0.0	0.7759400805286855	-0.5003939285664899	0.0	0.80252435890304	-0.5650758449186567	0.0
126	4.2176470588235295	0.7861746241187357	-0.5684066478390519	0.0	0.7849645738742507	-0.5692347105745159	0.0	0.7877847208666938	-0.6823014369870669	0.0	0.7663893736784798	-0.80000831407127	0.0	0.8074071580814061	-0.8177505255538298	0.0	0.7925940991275834	-0.822098701004377	0.0	0.7569609100249647	-0.8171977450597203	0.0	0.7879188119834648	-0.5700688249627281	0.0	0.7903239321610216	-0.682181610912666	0.0	0.7724625837558812	-0.7914760945733841	0.0	0.8164469932679781	-0.8056685536877825	0.0	0.8110176034826556	-0.8021894893617848	0.0	0.7633271304757451	-0.8081133500385752	0.0	0.7789967517077766	-0.4103306163772742	0.0	0.7915668609112483	-0.33712094040306706	0.0	0.8103903044693178	-0.3744792638175025	0.0	0.7682147051625893	-0.4336800322060478	0.0	0.7622635826997922	-0.5157010270319551	0.0	0.780461145012911	-0.5878222801793103	0.0	0.7795616393829055	-0.43322434126346504	0.0	0.776632210013078	-0.5079753731405298	0.0	0.7968788197993008	-0.5774338831075981	0.0
127	4.251120448179272	0.7883754023595431	-0.575234075691442	0.0	0.786422550528044	-0.5760520996068651	0.0	0.7865442698618205	-0.688562861608114	0.0	0.7652955924148077	-0.8057561207630402	0.0	0.8054173756201135	-0.823337019876547	0.0	0.7910429175569598	-0.8275609532843085	0.0	0.7558582599020699	-0.8226518795923421	0.0	0.7913950302828043	-0.5772382171382016	0.0	0.7909531750053891	-0.6884942829019606	0.0	0.7728166983497229	-0.7969492257781537	0.0	0.8161380804081146	-0.8103185405879992	0.0	0.8106620630343638	-0.8065131701247785	0.0	0.7638503147461136	-0.8136540125889055	0.0	0.7800322600339002	-0.41579331435440464	0.0	0.7916903508492292	-0.3435311034110821	0.0	0.8106369086916893	-0.38005485996766486	0.0	0.7692065241125703	-0.4397085164347028	0.0	0.7604816478305629	-0.5216471028425329	0.0	0.7716370890223762	-0.59707355307531	0.0	0.7817354788328996	-0.43914048191843813	0.0	0.7761969388416694	-0.5139334015766582	0.0	0.7925065420287309	-0.5855430495474644	0.0
128	4.284593837535014	0.7901790139367955	-0.5803629957241446	0.0	0.7875432184066835	-0.580972237517984	0.0	0.7860989217782294	-0.692964221765661	0.0	0.7645164289785918	-0.809940876812051	0.0	0.8039461719134812	-0.8271759851812404	0.0	0.7901180315203578	-0.8312262088027769	0.0	0.7550983122535679	-0.8264055058272507	0.0	0.7943388228215963	-0.5823094492048392	0.0	0.7918471497097236	-0.6928423736599711	0.0	0.773225823164442	-0.8008059484789684	0.0	0.8163082090699413	-0.8135544303150398	0.0	0.8107228975833106	-0.8095477204206813	0.0	0.7644752139373906	-0.8175739543173334	0.0	0.781006642785834	-0.42013751585106024	0.0	0.7922904216441613	-0.3485407959465277	0.0	0.81118615181513	-0.38461135744146147	0.0	0.7699107881889464	-0.44427254291759866	0.0	0.7574507093428443	-0.5254375396397405	0.0	0.7648284609307535	-0.6023211837783399	0.0	0.7833603209110481	-0.44360551230530715	0.0	0.7749036882054223	-0.5180375011283762	0.0	0.7896994786460102	-0.5900355890931424	0.0
